<svg width="500" height="500" viewBox="0 0 500 500" fill="none" xmlns="http://www.w3.org/2000/svg">
<rect width="500" height="500" fill="#1436FF"/>
<path fill-rule="evenodd" clip-rule="evenodd" d="M119.357 192.056C143.982 164.572 184.535 146.596 221.864 142.618C240.414 140.641 257.137 142.243 270.009 147.038C282.683 151.759 290.992 159.257 294.976 169.208C299.205 179.77 298.615 186.894 296.608 192.55C294.333 198.959 289.781 204.887 283.239 212.414C282.519 213.242 281.764 214.101 280.982 214.989L280.981 214.99C275.348 221.394 268.36 229.337 263.717 238.317C257.907 249.554 255.446 262.722 260.114 278.29C264.524 292.997 278.144 312.587 302.593 331.729C327.386 351.14 364.1 370.747 416.318 385.099V385.099C424.073 387.231 432.089 382.672 434.221 374.916V374.916C436.352 367.16 431.793 359.145 424.037 357.013V357.013C374.963 343.525 341.867 325.484 320.549 308.794C298.888 291.836 290.098 276.873 288.014 269.924C285.755 262.389 286.849 256.998 289.591 251.695C292.477 246.113 296.893 241.06 302.821 234.276L302.824 234.272C303.598 233.387 304.398 232.472 305.223 231.522C311.736 224.029 319.748 214.434 324.058 202.293C328.635 189.398 328.65 174.947 322.017 158.381C314.29 139.083 298.612 126.609 280.176 119.742C261.938 112.949 240.429 111.347 218.777 113.654C175.703 118.244 127.974 138.789 97.663 172.619V172.619C92.2957 178.61 92.8009 187.817 98.7916 193.185V193.185C104.782 198.552 113.99 198.047 119.357 192.056V192.056ZM177.714 210.767C177.714 202.723 171.193 196.203 163.15 196.203V196.203C155.106 196.203 148.586 202.723 148.586 210.767V330.191C148.586 338.234 155.106 344.755 163.15 344.755V344.755C171.193 344.755 177.714 338.234 177.714 330.191V299.852C177.714 291.809 184.234 285.288 192.278 285.288H218.05C226.094 285.288 232.614 278.768 232.614 270.724V270.278C232.614 262.235 226.094 255.714 218.05 255.714H192.278C184.234 255.714 177.714 249.194 177.714 241.15V210.767ZM125.103 285.288C133.147 285.288 139.667 278.768 139.667 270.724V270.278C139.667 262.235 133.147 255.714 125.103 255.714H107.758C99.7143 255.714 93.1938 262.235 93.1938 270.278L93.1938 270.724C93.1938 278.768 99.7143 285.288 107.758 285.288H125.103Z" fill="#C5F9EE"/>
</svg>
