<svg width="1182" height="205" viewBox="0 0 1182 205" fill="none" xmlns="http://www.w3.org/2000/svg">
<g clip-path="url(#clip0_9978_298)">
<path d="M1112.6 100.319V160.703C1112.6 162.912 1110.81 164.703 1108.6 164.703H1100.16C1097.95 164.703 1096.16 162.912 1096.16 160.703V26C1096.16 23.7909 1097.95 22 1100.16 22H1108.6C1110.81 22 1112.6 23.7909 1112.6 26V73.5511C1112.6 74.0192 1112.98 74.3986 1113.45 74.3986V74.3986C1113.78 74.3986 1114.08 74.2037 1114.22 73.9031C1116.73 68.6078 1120.42 64.3832 1125.28 61.2293C1130.34 57.9312 1137.08 56.2821 1145.49 56.2821C1152.78 56.2821 1159.17 57.7453 1164.65 60.6719C1170.13 63.5519 1174.38 67.9882 1177.4 73.9806C1180.47 79.9265 1182 87.4983 1182 96.6959V160.703C1182 162.912 1180.21 164.703 1178 164.703H1169.56C1167.35 164.703 1165.56 162.912 1165.56 160.703V97.8108C1165.56 89.3099 1163.35 82.7369 1158.94 78.0916C1154.57 73.3999 1148.51 71.054 1140.75 71.054C1135.36 71.054 1130.53 72.1921 1126.26 74.4683C1122.03 76.7445 1118.68 80.0659 1116.22 84.4324C1113.81 88.799 1112.6 94.0946 1112.6 100.319Z" fill="#C5F9EE"/>
<path d="M1036.92 166.933C1026.88 166.933 1018.24 164.563 1011 159.825C1003.75 155.087 998.174 148.56 994.272 140.245C990.37 131.93 988.419 122.431 988.419 111.747C988.419 100.877 990.417 91.2843 994.412 82.9693C998.453 74.6078 1004.07 68.0812 1011.27 63.3895C1018.52 58.6513 1026.98 56.2822 1036.64 56.2822C1044.16 56.2822 1050.94 57.6758 1056.98 60.463C1063.02 63.2501 1067.97 67.1522 1071.83 72.169C1074.79 76.0257 1076.89 80.3764 1078.12 85.2212C1078.72 87.574 1076.84 89.7282 1074.41 89.7282H1065.66C1063.83 89.7282 1062.27 88.4762 1061.59 86.7847C1060.09 83.0943 1057.63 79.7554 1054.2 76.7679C1049.92 72.9587 1044.16 71.0542 1036.92 71.0542C1030.51 71.0542 1024.88 72.7265 1020.05 76.0711C1015.27 79.3692 1011.53 84.0377 1008.84 90.0766C1006.19 96.0689 1004.86 103.107 1004.86 111.189C1004.86 119.458 1006.16 126.658 1008.77 132.79C1011.41 138.922 1015.13 143.683 1019.91 147.074C1024.75 150.465 1030.41 152.161 1036.92 152.161C1041.19 152.161 1045.07 151.417 1048.55 149.931C1052.04 148.444 1054.99 146.308 1057.4 143.52C1059.19 141.46 1060.59 139.095 1061.62 136.425C1062.27 134.727 1063.83 133.487 1065.65 133.487H1074.37C1076.81 133.487 1078.7 135.662 1078.07 138.021C1076.86 142.557 1074.87 146.736 1072.1 150.558C1068.48 155.575 1063.67 159.57 1057.68 162.543C1051.73 165.469 1044.81 166.933 1036.92 166.933Z" fill="#C5F9EE"/>
<path d="M901.989 100.319V160.703C901.989 162.912 900.198 164.703 897.989 164.703H889.544C887.335 164.703 885.544 162.912 885.544 160.703V61.6758C885.544 59.4667 887.335 57.6758 889.544 57.6758H897.431C899.64 57.6758 901.431 59.4667 901.431 61.6758V73.5489C901.431 74.0183 901.812 74.3988 902.281 74.3988V74.3988C902.613 74.3988 902.913 74.2056 903.057 73.9069C905.566 68.6998 909.297 64.4972 914.252 61.2991C919.362 57.9545 925.958 56.2822 934.041 56.2822C941.288 56.2822 947.628 57.7687 953.063 60.7417C958.498 63.6682 962.726 68.1277 965.745 74.1201C968.764 80.066 970.274 87.5913 970.274 96.6961V160.703C970.274 162.912 968.483 164.703 966.274 164.703H957.83C955.621 164.703 953.83 162.912 953.83 160.703V97.8109C953.83 89.403 951.647 82.8532 947.28 78.1614C942.914 73.4233 936.921 71.0542 929.303 71.0542C924.054 71.0542 919.362 72.1923 915.228 74.4684C911.14 76.7446 907.911 80.066 905.542 84.4325C903.173 88.7991 901.989 94.0947 901.989 100.319Z" fill="#C5F9EE"/>
<path d="M824.101 166.933C813.788 166.933 804.892 164.656 797.414 160.104C789.981 155.505 784.244 149.095 780.203 140.873C776.208 132.604 774.21 122.988 774.21 112.025C774.21 101.063 776.208 91.4005 780.203 83.039C784.244 74.631 789.865 68.0812 797.065 63.3895C804.312 58.6513 812.766 56.2822 822.428 56.2822C828.003 56.2822 833.507 57.2113 838.942 59.0694C844.377 60.9275 849.324 63.9469 853.784 68.1277C858.243 72.262 861.797 77.7434 864.445 84.5719C867.093 91.4005 868.417 99.8084 868.417 109.796V112.764C868.417 114.973 866.626 116.764 864.417 116.764H789.917C787.707 116.764 785.917 114.973 785.917 112.764V106.549C785.917 104.34 787.707 102.549 789.917 102.549H847.694C849.903 102.549 851.717 100.754 851.508 98.5546C851.086 94.108 849.94 90.051 848.07 86.3836C845.701 81.6454 842.31 77.9059 837.897 75.1652C833.531 72.4245 828.374 71.0542 822.428 71.0542C815.879 71.0542 810.211 72.68 805.427 75.9317C800.688 79.1369 797.042 83.3177 794.487 88.4739C791.932 93.6302 790.655 99.158 790.655 105.058V114.534C790.655 122.617 792.048 129.468 794.835 135.089C797.669 140.664 801.594 144.914 806.611 147.84C811.628 150.721 817.458 152.161 824.101 152.161C828.421 152.161 832.323 151.557 835.807 150.349C839.337 149.095 842.38 147.237 844.935 144.775C846.68 143.061 848.154 141.066 849.358 138.788C850.328 136.952 852.394 135.869 854.394 136.43L862.787 138.786C864.955 139.395 866.215 141.685 865.308 143.746C863.624 147.572 861.293 151.027 858.313 154.112C854.365 158.153 849.487 161.312 843.68 163.588C837.874 165.818 831.347 166.933 824.101 166.933Z" fill="#C5F9EE"/>
<path d="M542.628 166.932C533.71 166.932 525.836 164.679 519.007 160.174C512.179 155.621 506.837 149.211 502.981 140.942C499.126 132.627 497.198 122.802 497.198 111.468C497.198 100.226 499.126 90.4713 502.981 82.2027C506.837 73.9341 512.202 67.5469 519.077 63.0409C525.952 58.535 533.895 56.2821 542.907 56.2821C549.875 56.2821 555.38 57.4434 559.421 59.766C563.509 62.0422 566.621 64.6436 568.758 67.5701C570.784 70.2426 572.39 72.4752 573.576 74.2678C573.745 74.5228 574.029 74.6773 574.335 74.6773V74.6773C574.834 74.6773 575.238 74.2729 575.238 73.774V26C575.238 23.7909 577.029 22 579.238 22H587.683C589.892 22 591.683 23.7909 591.683 26V160.703C591.683 162.912 589.892 164.703 587.683 164.703H579.796C577.587 164.703 575.796 162.912 575.796 160.703V149.511C575.796 148.819 575.235 148.258 574.543 148.258V148.258C574.109 148.258 573.707 148.483 573.473 148.849C572.294 150.699 570.699 152.964 568.688 155.644C566.459 158.571 563.277 161.195 559.142 163.518C555.008 165.794 549.503 166.932 542.628 166.932ZM544.858 152.16C551.454 152.16 557.029 150.442 561.581 147.004C566.134 143.52 569.594 138.712 571.963 132.581C574.332 126.402 575.517 119.272 575.517 111.189C575.517 103.199 574.356 96.2082 572.033 90.2158C569.71 84.1769 566.273 79.4852 561.721 76.1406C557.168 72.7496 551.547 71.054 544.858 71.054C537.89 71.054 532.084 72.8425 527.438 76.4193C522.84 79.9497 519.379 84.7576 517.056 90.8429C514.78 96.8817 513.642 103.664 513.642 111.189C513.642 118.807 514.803 125.729 517.126 131.954C519.495 138.132 522.979 143.056 527.578 146.725C532.223 150.349 537.983 152.16 544.858 152.16Z" fill="#C5F9EE"/>
<path d="M464.074 61.8665C459.878 59.367 455.473 57.6799 450.964 56.8676C446.497 56.0552 442.489 55.6387 439.066 55.6387C433.701 55.6387 428.169 56.3677 422.617 57.8257C417.064 59.2837 411.887 61.8665 407.211 65.5116C404.644 67.5112 399.884 71.9269 396.836 79.0087C396.106 80.7375 396.189 82.7787 397.066 84.1118C397.713 85.0699 398.673 85.5906 399.863 85.5906H408.714C410.655 85.5906 412.826 85.424 414.1 83.5286C415.832 80.9041 418.254 78.4255 421.719 75.7802C426.061 72.4268 432.156 70.7396 439.859 70.7396C447.562 70.7396 452.822 72.6142 456.454 76.3009C460.086 79.9877 461.923 85.2366 461.923 91.9226V122.749C461.923 139.975 451.883 145.682 448.585 147.557C444.201 150.035 438.753 151.306 432.386 151.306C426.75 151.306 420.926 150.889 416.479 147.869C411.804 144.682 409.382 138.496 410.509 132.456C411.929 124.874 419.485 121.416 422.658 120.271C430.215 117.584 438.147 116.105 446.873 115.751C449.357 115.647 451.298 113.606 451.298 111.106V105.503C451.298 102.941 449.19 100.837 446.434 100.837C435.496 101.212 419.819 103.212 407.211 110.544C400.343 114.543 395.605 120.916 393.83 128.519C392.014 136.33 393.517 144.391 398.047 151.223C401.304 156.117 405.771 159.929 411.323 162.512C417.022 165.157 423.097 166.386 430.445 166.386C452.133 166.386 459.001 155.555 461.944 150.806V159.929C461.944 162.491 464.053 164.595 466.62 164.595H474.469C477.037 164.595 479.145 162.491 479.145 159.929V93.6931C479.145 85.4657 477.663 78.5921 474.72 73.2808C471.943 68.2193 468.374 64.3868 464.136 61.8457" fill="#C5F9EE"/>
<path d="M713.054 166.932C721.973 166.932 729.847 164.679 736.675 160.174C743.504 155.621 748.846 149.211 752.702 140.942C756.557 132.627 758.485 122.802 758.485 111.468C758.485 100.226 756.557 90.4713 752.702 82.2027C748.846 73.9341 743.481 67.5469 736.606 63.0409C729.731 58.535 721.787 56.2821 712.775 56.2821C705.808 56.2821 700.303 57.4434 696.261 59.766C692.174 62.0422 689.061 64.6436 686.924 67.5701C684.899 70.2426 683.293 72.4752 682.107 74.2678C681.938 74.5228 681.653 74.6773 681.348 74.6773V74.6773C680.849 74.6773 680.444 74.2729 680.444 73.774V26C680.444 23.7909 678.653 22 676.444 22H668C665.791 22 664 23.7909 664 26V160.703C664 162.912 665.791 164.703 668 164.703H675.887C678.096 164.703 679.887 162.912 679.887 160.703V149.511C679.887 148.819 680.448 148.258 681.14 148.258V148.258C681.574 148.258 681.976 148.483 682.209 148.849C683.389 150.699 684.984 152.964 686.994 155.644C689.224 158.571 692.406 161.195 696.54 163.518C700.675 165.794 706.179 166.932 713.054 166.932ZM710.824 152.16C704.228 152.16 698.654 150.442 694.101 147.004C689.549 143.52 686.088 138.712 683.719 132.581C681.35 126.402 680.166 119.272 680.166 111.189C680.166 103.199 681.327 96.2082 683.65 90.2158C685.972 84.1769 689.41 79.4852 693.962 76.1406C698.514 72.7496 704.135 71.054 710.824 71.054C717.792 71.054 723.599 72.8425 728.244 76.4193C732.843 79.9497 736.304 84.7576 738.626 90.8429C740.903 96.8817 742.041 103.664 742.041 111.189C742.041 118.807 740.879 125.729 738.557 131.954C736.188 138.132 732.704 143.056 728.105 146.725C723.46 150.349 717.699 152.16 710.824 152.16Z" fill="#C5F9EE"/>
<path d="M382.241 60.1243V67.0187C382.241 69.289 380.404 71.1219 378.129 71.1219H372.326C367.191 71.1219 362.556 72.2467 358.549 74.4546C354.541 76.6625 351.347 79.9534 349.051 84.1817C346.796 88.3266 345.565 94.0546 345.565 100.324V160.311C345.565 162.873 343.456 164.977 340.889 164.977H333.04C330.451 164.977 328.364 162.873 328.364 160.311V62.478C328.364 59.916 330.451 57.8123 333.04 57.8123H340.889C343.456 57.8123 345.565 59.916 345.565 62.478V71.5177C347.255 68.8308 350.595 64.3109 355.751 61.0199C360.74 57.8331 368.506 56.021 377.064 56.021H378.15C380.425 56.021 382.262 57.8539 382.262 60.1243" fill="#C5F9EE"/>
<path fill-rule="evenodd" clip-rule="evenodd" d="M19.7161 59.861C38.1425 39.2947 68.4878 25.8432 96.4207 22.8667C110.302 21.3875 122.815 22.5865 132.447 26.1742C141.931 29.7068 148.149 35.3174 151.13 42.7638C154.295 50.6669 153.853 55.9984 152.351 60.2301C150.649 65.026 147.243 69.462 142.347 75.0944C141.809 75.7141 141.243 76.3569 140.658 77.022C136.443 81.8138 131.213 87.758 127.739 94.4775C123.392 102.886 121.55 112.739 125.043 124.389C128.343 135.394 138.535 150.053 156.83 164.377C175.382 178.902 202.855 193.573 241.929 204.313V204.313C247.732 205.908 253.73 202.497 255.325 196.693V196.693C256.92 190.89 253.509 184.892 247.705 183.297V183.297C210.983 173.203 186.218 159.704 170.266 147.215C154.058 134.525 147.48 123.328 145.921 118.129C144.23 112.49 145.049 108.456 147.1 104.488C149.26 100.311 152.564 96.53 157 91.4538L157.004 91.4497C157.582 90.7874 158.18 90.1031 158.798 89.393C163.671 83.7859 169.667 76.606 172.891 67.5211C176.316 57.8721 176.328 47.058 171.365 34.662C165.582 20.2213 153.851 10.8876 140.055 5.7491C126.408 0.665791 110.313 -0.533139 94.1112 1.19331C61.8788 4.62798 26.1637 20.0015 3.4826 45.3165V45.3165C-0.533749 49.7992 -0.155656 56.6891 4.32709 60.7055V60.7055C8.80984 64.7218 15.6997 64.3437 19.7161 59.861V59.861ZM63.3836 73.8621C63.3836 67.8433 58.5044 62.9641 52.4856 62.9641V62.9641C46.4668 62.9641 41.5876 67.8433 41.5876 73.8621V163.226C41.5876 169.245 46.4668 174.124 52.4856 174.124V174.124C58.5044 174.124 63.3836 169.245 63.3836 163.226V140.524C63.3836 134.505 68.2628 129.626 74.2816 129.626L93.5671 129.626C99.5859 129.626 104.465 124.747 104.465 118.728V118.394C104.465 112.375 99.5859 107.496 93.5671 107.496H74.2816C68.2628 107.496 63.3836 102.617 63.3836 96.5978V73.8621ZM24.0156 129.626C30.0344 129.626 34.9136 124.746 34.9136 118.728V118.394C34.9136 112.375 30.0344 107.496 24.0156 107.496H11.036C5.01723 107.496 0.138019 112.375 0.138019 118.394L0.138019 118.728C0.138019 124.746 5.01723 129.626 11.036 129.626H24.0156Z" fill="#C5F9EE"/>
</g>
<defs>
<clipPath id="clip0_9978_298">
<rect width="1182" height="205" fill="white"/>
</clipPath>
</defs>
</svg>
